<svg id="visual" viewBox="0 0 900 600" width="900" height="600" xmlns="http://www.w3.org/2000/svg" xmlns:xlink="http://www.w3.org/1999/xlink" version="1.1"><rect x="0" y="0" width="900" height="600" fill="#001220"></rect><path d="M567 600L568 583.3C569 566.7 571 533.3 575 500C579 466.7 585 433.3 589.5 400C594 366.7 597 333.3 572.5 300C548 266.7 496 233.3 482.7 200C469.3 166.7 494.7 133.3 502.5 100C510.3 66.7 500.7 33.3 495.8 16.7L491 0L900 0L900 16.7C900 33.3 900 66.7 900 100C900 133.3 900 166.7 900 200C900 233.3 900 266.7 900 300C900 333.3 900 366.7 900 400C900 433.3 900 466.7 900 500C900 533.3 900 566.7 900 583.3L900 600Z" fill="#2b2bd2"></path><path d="M518 600L532 583.3C546 566.7 574 533.3 574.3 500C574.7 466.7 547.3 433.3 551.3 400C555.3 366.7 590.7 333.3 604.2 300C617.7 266.7 609.3 233.3 594.2 200C579 166.7 557 133.3 564.3 100C571.7 66.7 608.3 33.3 626.7 16.7L645 0L900 0L900 16.7C900 33.3 900 66.7 900 100C900 133.3 900 166.7 900 200C900 233.3 900 266.7 900 300C900 333.3 900 366.7 900 400C900 433.3 900 466.7 900 500C900 533.3 900 566.7 900 583.3L900 600Z" fill="#0d46df"></path><path d="M643 600L632.3 583.3C621.7 566.7 600.3 533.3 603.7 500C607 466.7 635 433.3 643.5 400C652 366.7 641 333.3 621.8 300C602.7 266.7 575.3 233.3 563.7 200C552 166.7 556 133.3 564.2 100C572.3 66.7 584.7 33.3 590.8 16.7L597 0L900 0L900 16.7C900 33.3 900 66.7 900 100C900 133.3 900 166.7 900 200C900 233.3 900 266.7 900 300C900 333.3 900 366.7 900 400C900 433.3 900 466.7 900 500C900 533.3 900 566.7 900 583.3L900 600Z" fill="#005cea"></path><path d="M579 600L580.7 583.3C582.3 566.7 585.7 533.3 586.2 500C586.7 466.7 584.3 433.3 604.2 400C624 366.7 666 333.3 668.2 300C670.3 266.7 632.7 233.3 623.5 200C614.3 166.7 633.7 133.3 630 100C626.3 66.7 599.7 33.3 586.3 16.7L573 0L900 0L900 16.7C900 33.3 900 66.7 900 100C900 133.3 900 166.7 900 200C900 233.3 900 266.7 900 300C900 333.3 900 366.7 900 400C900 433.3 900 466.7 900 500C900 533.3 900 566.7 900 583.3L900 600Z" fill="#0071f3"></path><path d="M675 600L677.3 583.3C679.7 566.7 684.3 533.3 682.8 500C681.3 466.7 673.7 433.3 674.7 400C675.7 366.7 685.3 333.3 696 300C706.7 266.7 718.3 233.3 709.3 200C700.3 166.7 670.7 133.3 653.7 100C636.7 66.7 632.3 33.3 630.2 16.7L628 0L900 0L900 16.7C900 33.3 900 66.7 900 100C900 133.3 900 166.7 900 200C900 233.3 900 266.7 900 300C900 333.3 900 366.7 900 400C900 433.3 900 466.7 900 500C900 533.3 900 566.7 900 583.3L900 600Z" fill="#0084f9"></path><path d="M687 600L700.2 583.3C713.3 566.7 739.7 533.3 739 500C738.3 466.7 710.7 433.3 696.8 400C683 366.7 683 333.3 688.7 300C694.3 266.7 705.7 233.3 712.8 200C720 166.7 723 133.3 718.3 100C713.7 66.7 701.3 33.3 695.2 16.7L689 0L900 0L900 16.7C900 33.3 900 66.7 900 100C900 133.3 900 166.7 900 200C900 233.3 900 266.7 900 300C900 333.3 900 366.7 900 400C900 433.3 900 466.7 900 500C900 533.3 900 566.7 900 583.3L900 600Z" fill="#0096fd"></path><path d="M798 600L792 583.3C786 566.7 774 533.3 764.8 500C755.7 466.7 749.3 433.3 749.7 400C750 366.7 757 333.3 754.3 300C751.7 266.7 739.3 233.3 736.2 200C733 166.7 739 133.3 741.2 100C743.3 66.7 741.7 33.3 740.8 16.7L740 0L900 0L900 16.7C900 33.3 900 66.7 900 100C900 133.3 900 166.7 900 200C900 233.3 900 266.7 900 300C900 333.3 900 366.7 900 400C900 433.3 900 466.7 900 500C900 533.3 900 566.7 900 583.3L900 600Z" fill="#00a6fd"></path><path d="M794 600L793.3 583.3C792.7 566.7 791.3 533.3 790.8 500C790.3 466.7 790.7 433.3 796.5 400C802.3 366.7 813.7 333.3 813 300C812.3 266.7 799.7 233.3 803.2 200C806.7 166.7 826.3 133.3 830.7 100C835 66.7 824 33.3 818.5 16.7L813 0L900 0L900 16.7C900 33.3 900 66.7 900 100C900 133.3 900 166.7 900 200C900 233.3 900 266.7 900 300C900 333.3 900 366.7 900 400C900 433.3 900 466.7 900 500C900 533.3 900 566.7 900 583.3L900 600Z" fill="#00b4fa"></path><path d="M821 600L820.5 583.3C820 566.7 819 533.3 823.8 500C828.7 466.7 839.3 433.3 845.8 400C852.3 366.7 854.7 333.3 858.5 300C862.3 266.7 867.7 233.3 862.7 200C857.7 166.7 842.3 133.3 839.7 100C837 66.7 847 33.3 852 16.7L857 0L900 0L900 16.7C900 33.3 900 66.7 900 100C900 133.3 900 166.7 900 200C900 233.3 900 266.7 900 300C900 333.3 900 366.7 900 400C900 433.3 900 466.7 900 500C900 533.3 900 566.7 900 583.3L900 600Z" fill="#1fc2f6"></path></svg>